# xmcd
#
# Track frame offsets:
#	150
#	12165
#	24448
#	33648
#	42572
#	50680
#	63937
#	73599
#	84244
#	94242
#	102883
#	114312
#	125849
#	137218
#	148494
#	157496
#	166312
#	180015
#	192243
#	203847
#	215147
#	227166
#	240061
#	250845
#	261647
#	271673
#	279925
#	292069
#
# Disc length: 4013 seconds
#
# Revision: 1
# Processed by: cddbd v1.5.2PL0 Copyright (c) Steve Scherf et al.
# Submitted via: audiograbber 1.83.01
#
DISCID=a50fab1c
DTITLE=The Del Vikins - Cool Shake
DYEAR=1900
DGENRE=doo wap
TTITLE0=Oh I Love You
TTITLE1=Oh Tonight
TTITLE2=That's Why
TTITLE3=The Big Beat
TTITLE4=The Voodoo man
TTITLE5=What Do You Have Doen To Me
TTITLE6=A Meeting Of The Eyes
TTITLE7=Friendly Moon
TTITLE8=Nobody Kisses But Yours
TTITLE9=Oh Byby
TTITLE10=String Along
TTITLE11=There I Go
TTITLE12=Flat Tire
TTITLE13=Can't Wait
TTITLE14=I'm Sittin' On The Top Of The World
TTITLE15=Jitterbog Mary
TTITLE16=Somewhere Over The Rainbow
TTITLE17=Heaven On Earth
TTITLE18=The Bells
TTITLE19=Aou Are Invited
TTITLE20=Come Go With Me
TTITLE21=Don't Be A Fool
TTITLE22=Whispering Bells
TTITLE23=A Sunday Kind Of Love
TTITLE24=Cool Shake
TTITLE25=I'm Spinning
TTITLE26=When I Come Home
TTITLE27=Come Along With Me
EXTD=
EXTT0=
EXTT1=
EXTT2=
EXTT3=
EXTT4=
EXTT5=
EXTT6=
EXTT7=
EXTT8=
EXTT9=
EXTT10=
EXTT11=
EXTT12=
EXTT13=
EXTT14=
EXTT15=
EXTT16=
EXTT17=
EXTT18=
EXTT19=
EXTT20=
EXTT21=
EXTT22=
EXTT23=
EXTT24=
EXTT25=
EXTT26=
EXTT27=
PLAYORDER=
